<svg width="17" height="44" viewBox="0 0 17 44" fill="none" xmlns="http://www.w3.org/2000/svg">
<path fill-rule="evenodd" clip-rule="evenodd" d="M1.00002 20.5832C1.00002 7.50237 6.42168 0.445076 8.63886 0.444519C10.8564 0.445076 16.2777 7.50192 16.2777 20.5832C16.2777 33.8001 11.5347 42.7602 11.3333 43.1352L11.1371 43.4998H6.14064L5.94446 43.1352C5.74313 42.7601 1.00002 33.8001 1.00002 20.5832ZM7.94468 2.28832V2.28825L7.94481 2.28821L7.94468 2.28832ZM7.94468 2.28832V24.0558H9.33357V2.28825C11.1113 3.87505 14.8891 9.64781 14.8891 20.5834C14.8891 24.2327 14.5054 27.5625 13.9585 30.4705C13.1547 29.3264 11.6773 27.7691 8.98477 26.2309C2.4381 22.4895 2.51766 17.3522 2.52299 17.1353H2.52126C3.20355 8.41867 6.36482 3.70002 7.94468 2.28832ZM2.52482 24.2243C2.46579 23.4014 2.43107 22.5577 2.41197 21.6984C3.40507 23.5437 5.16718 25.6495 8.29535 27.4376C12.7407 29.9786 13.5018 32.4919 13.5209 32.5552L13.5211 32.5558C13.1809 34.0419 12.8076 35.3909 12.4343 36.5784C11.8493 35.5419 10.818 34.2676 8.99682 33.1826C3.51237 29.9169 2.64615 25.179 2.52482 24.2243ZM9.33348 42.1114H10.2936L10.2934 42.1111C10.5694 41.5416 11.1285 40.3228 11.7639 38.5694C11.6285 37.9912 10.9792 35.9791 8.28473 34.3749C5.83517 32.915 4.22406 31.1772 3.15984 29.5487C4.29699 36.2105 6.35953 40.8232 6.9845 42.1114H7.94459V37.25H9.33348V42.1114Z" fill="white"/>
<path d="M8.63886 0.444519L8.6389 0.319519L8.63883 0.319519L8.63886 0.444519ZM11.3333 43.1352L11.4433 43.1944L11.4434 43.1943L11.3333 43.1352ZM11.1371 43.4998V43.6248H11.2118L11.2472 43.559L11.1371 43.4998ZM6.14064 43.4998L6.03057 43.559L6.06596 43.6248H6.14064V43.4998ZM5.94446 43.1352L5.83432 43.1943L5.83438 43.1944L5.94446 43.1352ZM7.94468 2.28825L7.90441 2.16992L7.81968 2.19875V2.28825H7.94468ZM7.94481 2.28821L8.02808 2.38143L7.90454 2.16987L7.94481 2.28821ZM7.94468 24.0558H7.81968V24.1808H7.94468V24.0558ZM9.33357 24.0558V24.1808H9.45857V24.0558H9.33357ZM9.33357 2.28825L9.41681 2.195L9.20857 2.00913V2.28825H9.33357ZM13.9585 30.4705L13.8563 30.5423L14.0266 30.7848L14.0814 30.4936L13.9585 30.4705ZM8.98477 26.2309L8.92275 26.3394L8.92276 26.3394L8.98477 26.2309ZM2.52299 17.1353L2.64796 17.1384L2.6511 17.0103H2.52299V17.1353ZM2.52126 17.1353L2.39664 17.1256L2.38609 17.2603H2.52126V17.1353ZM2.41197 21.6984L2.52204 21.6391L2.287 21.7011L2.41197 21.6984ZM2.52482 24.2243L2.39995 24.2333L2.40081 24.2401L2.52482 24.2243ZM8.29535 27.4376L8.23332 27.5461H8.23332L8.29535 27.4376ZM13.5209 32.5552L13.4013 32.5914L13.4014 32.5916L13.5209 32.5552ZM13.5211 32.5558L13.643 32.5837L13.6504 32.5513L13.6407 32.5194L13.5211 32.5558ZM12.4343 36.5784L12.3255 36.6398L12.4672 36.8908L12.5536 36.6159L12.4343 36.5784ZM8.99682 33.1826L9.0608 33.0752L9.06077 33.0752L8.99682 33.1826ZM10.2936 42.1114V42.2364H10.5095L10.402 42.0491L10.2936 42.1114ZM9.33348 42.1114H9.20848V42.2364H9.33348V42.1114ZM10.2934 42.1111L10.1809 42.0565L10.1521 42.116L10.185 42.1733L10.2934 42.1111ZM11.7639 38.5694L11.8814 38.6119L11.8941 38.577L11.8856 38.5409L11.7639 38.5694ZM8.28473 34.3749L8.22073 34.4823L8.22078 34.4823L8.28473 34.3749ZM3.15984 29.5487L3.26448 29.4803L3.03662 29.5697L3.15984 29.5487ZM6.9845 42.1114L6.87204 42.1659L6.90621 42.2364H6.9845V42.1114ZM7.94459 42.1114V42.2364H8.06959V42.1114H7.94459ZM7.94459 37.25V37.125H7.81959V37.25H7.94459ZM9.33348 37.25H9.45848V37.125H9.33348V37.25ZM8.63883 0.319519C8.33025 0.319596 7.98027 0.441617 7.60924 0.666611C7.23678 0.892478 6.83458 1.22725 6.41915 1.66599C5.58818 2.54358 4.6958 3.84614 3.87531 5.55464C2.23391 8.97254 0.875015 14.0258 0.875015 20.5832H1.12502C1.12502 14.0597 2.47695 9.04395 4.10067 5.66287C4.91275 3.97187 5.79151 2.69245 6.60068 1.83787C7.00533 1.41052 7.39046 1.09166 7.73887 0.880377C8.08873 0.668223 8.39318 0.569581 8.6389 0.569519L8.63883 0.319519ZM16.4027 20.5832C16.4027 14.0256 15.0439 8.97232 13.4025 5.55447C12.5821 3.846 11.6897 2.54348 10.8587 1.66592C10.4433 1.2272 10.0411 0.892446 9.66857 0.66659C9.29752 0.441606 8.94751 0.319596 8.6389 0.319519L8.63883 0.569519C8.8846 0.569581 9.18908 0.66822 9.53895 0.880362C9.88739 1.09163 10.2725 1.41048 10.6772 1.83781C11.4864 2.69236 12.3651 3.97174 13.1772 5.6627C14.8009 9.04373 16.1527 14.0595 16.1527 20.5832H16.4027ZM11.4434 43.1943C11.6499 42.8098 16.4027 33.8287 16.4027 20.5832H16.1527C16.1527 33.7714 11.4194 42.7106 11.2231 43.076L11.4434 43.1943ZM11.2472 43.559L11.4433 43.1944L11.2232 43.076L11.027 43.4405L11.2472 43.559ZM6.14064 43.6248H11.1371V43.3748H6.14064V43.6248ZM5.83438 43.1944L6.03057 43.559L6.25072 43.4405L6.05454 43.076L5.83438 43.1944ZM0.875015 20.5832C0.875015 33.8287 5.62789 42.8097 5.83432 43.1943L6.0546 43.0761C5.85836 42.7105 1.12502 33.7714 1.12502 20.5832H0.875015ZM7.81968 2.28825V2.28832H8.06968V2.28825H7.81968ZM7.90454 2.16987L7.90441 2.16992L7.98495 2.40659L7.98509 2.40654L7.90454 2.16987ZM8.02795 2.38155L8.02808 2.38143L7.86154 2.19498L7.86141 2.1951L8.02795 2.38155ZM8.06968 24.0558V2.28832H7.81968V24.0558H8.06968ZM9.33357 23.9308H7.94468V24.1808H9.33357V23.9308ZM9.20857 2.28825V24.0558H9.45857V2.28825H9.20857ZM15.0141 20.5834C15.0141 9.62206 11.2277 3.81137 9.41681 2.195L9.25033 2.38151C10.995 3.93873 14.7641 9.67356 14.7641 20.5834H15.0141ZM14.0814 30.4936C14.6295 27.579 15.0141 24.2414 15.0141 20.5834H14.7641C14.7641 24.2239 14.3814 27.5459 13.8357 30.4474L14.0814 30.4936ZM8.92276 26.3394C11.6003 27.8691 13.0637 29.4142 13.8563 30.5423L14.0608 30.3986C13.2458 29.2386 11.7543 27.6691 9.04678 26.1223L8.92276 26.3394ZM2.39803 17.1322C2.39204 17.3759 2.3219 22.5671 8.92275 26.3394L9.04679 26.1223C2.55431 22.412 2.64328 17.3285 2.64796 17.1384L2.39803 17.1322ZM2.52126 17.2603H2.52299V17.0103H2.52126V17.2603ZM7.86139 2.19511C6.25167 3.6335 3.08076 8.38559 2.39664 17.1256L2.64588 17.1451C3.32634 8.45175 6.47796 3.76655 8.02797 2.38153L7.86139 2.19511ZM2.287 21.7011C2.30613 22.562 2.34093 23.4078 2.40014 24.2333L2.64949 24.2154C2.59065 23.395 2.556 22.5534 2.53694 21.6956L2.287 21.7011ZM8.35738 27.3291C5.24953 25.5526 3.50406 23.4639 2.52204 21.6391L2.30189 21.7576C3.30607 23.6236 5.08482 25.7464 8.23332 27.5461L8.35738 27.3291ZM13.6406 32.519C13.6126 32.4264 12.8316 29.8866 8.35738 27.3291L8.23332 27.5461C12.6498 30.0706 13.391 32.5574 13.4013 32.5914L13.6406 32.519ZM13.6407 32.5194L13.6405 32.5188L13.4014 32.5916L13.4015 32.5922L13.6407 32.5194ZM12.5536 36.6159C12.9278 35.4253 13.3019 34.0732 13.643 32.5837L13.3993 32.5279C13.0598 34.0107 12.6874 35.3565 12.3151 36.5409L12.5536 36.6159ZM8.93284 33.2899C10.7338 34.363 11.7502 35.6208 12.3255 36.6398L12.5432 36.5169C11.9483 35.4631 10.9022 34.1723 9.0608 33.0752L8.93284 33.2899ZM2.40081 24.2401C2.52475 25.2153 3.4026 29.997 8.93286 33.29L9.06077 33.0752C3.62214 29.8368 2.76755 25.1428 2.64882 24.2086L2.40081 24.2401ZM10.2936 41.9864H9.33348V42.2364H10.2936V41.9864ZM10.185 42.1733L10.1852 42.1736L10.402 42.0491L10.4018 42.0488L10.185 42.1733ZM11.6464 38.5268C11.0126 40.2757 10.4553 41.4904 10.1809 42.0565L10.4059 42.1656C10.6835 41.5928 11.2443 40.37 11.8814 38.6119L11.6464 38.5268ZM8.22078 34.4823C10.8794 36.0652 11.5125 38.0444 11.6422 38.5979L11.8856 38.5409C11.7444 37.938 11.0789 35.893 8.34867 34.2675L8.22078 34.4823ZM3.0552 29.6171C4.12909 31.2604 5.75372 33.012 8.22073 34.4823L8.34872 34.2675C5.91662 32.818 4.31903 31.094 3.26448 29.4803L3.0552 29.6171ZM7.09697 42.0568C6.47558 40.776 4.4177 36.1748 3.28306 29.5277L3.03662 29.5697C4.17628 36.2462 6.24347 40.8703 6.87204 42.1659L7.09697 42.0568ZM7.94459 41.9864H6.9845V42.2364H7.94459V41.9864ZM7.81959 37.25V42.1114H8.06959V37.25H7.81959ZM9.33348 37.125H7.94459V37.375H9.33348V37.125ZM9.45848 42.1114V37.25H9.20848V42.1114H9.45848Z" fill="black"/>
</svg>
